# xmcd
# Copyright (C) 1995-1998 Ti Kan
#
# Track frame offsets:
#       150
#       13305
#       27652
#       43222
#       63435
#       82177
#       105772
#       135697
#       159212
#       181285
#       206275
#       224265
#       241827
#       265962
#
# Disc length: 3614 seconds
#
# Revision: 0
# Processed by: cddbd v1.5.2PL0 Copyright (c) Steve Scherf et al.
# Submitted via: CD-Import v1.0
#
DISCID=c00e1c0e
DTITLE=Get Well Soon - Rest Now, Weary Head! You Will Get Well Soon
DYEAR=08
DGENRE=
TTITLE0=Prelude
TTITLE1=You/Aurora/You/Seaside
TTITLE2=Christmas In Adventure Parks
TTITLE3=People Magazine Front Cover
TTITLE4=If This Hat Is Missing I Have Gone Hunting
TTITLE5=Help To Prevent Forest-Fires
TTITLE6=I Sold My Hands For Food So Please Feed Me
TTITLE7=We Are Safe Inside While They Burn Down Our House
TTITLE8=Born Slippy Nuxx
TTITLE9=Your Endless Dream
TTITLE10=Witches! Witches! Rest Now In The Fire
TTITLE11=Ticktack! Goes My Automatic Heart
TTITLE12=Lost In The Mountains (Of The Heart)
TTITLE13=Coda
EXTD=
EXTT0=
EXTT1=
EXTT2=
EXTT3=
EXTT4=
EXTT5=
EXTT6=
EXTT7=
EXTT8=
EXTT9=
EXTT10=
EXTT11=
EXTT12=
EXTT13=
PLAYORDER=
